<svg xmlns="http://www.w3.org/2000/svg" width="448.5" height="145.5"><switch><g fill-rule="evenodd" clip-rule="evenodd"><g fill="#074098"><path d="M105.611.046h-23.82v18.673H33.767v9.824h48.024v18.012H48.086v11.107H115.5s-.001 15.927-20.25 37.588-27.836 24.915-37.5 27.75c-9.664 2.835-26.037 2.38-31.5-1.5-5.463-3.88-11.751-8.9-11.25-18 .501-9.1 11.884-19.412 18.877-20.523 0 0-20.044-2.206-24.544 18.106-3.455 15.596 6.602 23.258 12.417 27.167s18.19 8.475 26.336 9c8.146.525 25.84-.552 42.664-12.75 16.823-12.198 37.282-36.662 43.5-51.75 6.218-15.088 8.91-21.331 9.75-26.195h-38.389V28.543h50.234v-9.824h-50.234V.046M186 .046S183.502 21.522 152.25 45l3.595 5.25s13.926-5.466 17.401-8.25v80.25h24.732V25.5S209.999 13.039 210 .046h-24z"/><path d="M245.961.046v26.958h-43.476v9.078h43.476V121.5h24.122V36.082h11.255v-9.078h-11.255V.046zM364.452.046v11.216h46.508v7.456c0 22.097-14.212 24.825-14.212 24.825h-32.296v19.421h32.296v9.786h-32.296v45.75H339.75V72.75h-34.568v-9.786h34.568V43.543h-49.471V8.289h23.06v2.973h26.412V.046h24.701zm-51.114 21.475V34.53h77.412V21.521h-77.412z"/></g><g fill="#ED6C1F"><path d="M44.099 136.744S21.628 133.071 12 116.25C8.33 109.839 7.958 97 18 88.5c8.357-7.074 19.518-6.553 33.75-3s24.419 8.078 42.75 17.25c18.486 9.25 44.916 22.501 78.656 29.647 33.741 7.146 52.273 9.357 72.805 10.853 35.377 2.577 149.409-2.407 164.998-6l37.541-39s-112.934 17.355-183.75 18c-70.816.645-78.784-3.66-95.25-6.75-16.466-3.09-59.859-17.214-72.75-22.5-6.296-2.582-41.73-16.265-62.983-14.25S1.155 83.992.75 98.25s5.059 33.916 43.349 38.494zM242.518 61.526l-21.025 21.025-21.025-21.025 21.025-21.025z"/><path d="M403.7 89.326l-14.81 14.81-14.81-14.81 14.81-14.81z"/></g></g></switch></svg>