<svg version="1.1" id="图层_1" xmlns="http://www.w3.org/2000/svg" x="0" y="0" viewBox="-31 340.2 531.2 161.7" xml:space="preserve"><style>.st0{fill:#64ab23}.st1{fill:#a8a8a8}</style><path class="st0" d="M37.6 340.2c-37.5-.6-68.6 27-68.6 59.5 0 18.8 8.8 35 25.9 47 0 0-6.3 20.7-6.2 21.1.1.4 1.5 1.2 1.9 1s22.6-13.5 22.6-13.5c17 5.8 26.9 3.9 27.4 3.9-1.7-5-2.8-12.7-1.5-20 6.6-38.1 45.6-50 67-47.9-5.9-27.7-31.5-50.6-68.5-51.1zm-26.1 49.1c-4.9 0-8.9-4-8.9-8.9s4-8.9 8.9-8.9 8.9 4 8.9 8.9-4 8.9-8.9 8.9zm53.9 0c-4.9 0-8.9-4-8.9-8.9s4-8.9 8.9-8.9 8.9 4 8.9 8.9-3.9 8.9-8.9 8.9z"/><path class="st1" d="M161 444.9c0-27.8-26.9-49.2-58.1-49.2-33.1 0-59.4 21.8-59.4 49.6 0 27.9 25.1 51 59.5 51.2 6.9 0 17.2-1.7 24.2-4.6 0 0 16.6 10.1 17.5 10 .9-.1 1.4-.8 1.4-1.4 0-.6-5.3-16.4-5.3-16.4 14.2-11.2 20.2-23.5 20.2-39.2zm-79.9-10.3c-4.4 0-7.9-3.5-7.9-7.9s3.5-7.9 7.9-7.9 7.9 3.5 7.9 7.9-3.6 7.9-7.9 7.9zm42.1 0c-4.4 0-7.9-3.5-7.9-7.9s3.5-7.9 7.9-7.9 7.9 3.5 7.9 7.9-3.5 7.9-7.9 7.9z"/><g><path class="st0" d="M246.6 406.7l-11.9 49-10-49h-15.2l-10 49-11.9-49h-14.8l19.9 69.5h13.5L217 423l10.8 53.2h13.6l19.9-69.5zM297.3 430c-4.3-4.7-10.3-7.1-18.2-7.1-7.4 0-13.2 2.5-17.5 7.3-4.3 4.9-6.4 11.5-6.4 19.9 0 8.6 2.2 15.3 6.5 20.3s10.2 7.5 17.6 7.5c6 0 11.1-1.5 15.3-4.6 4.2-3.1 7-7.3 8.4-12.7h-13.6c-.9 1.9-2.1 3.4-3.6 4.1-1.5.9-3.4 1.4-5.8 1.4-3.4 0-5.9-1.1-7.7-3.1-1.7-2-2.7-5.1-2.9-9.1h34.2c0-.4.1-.9.1-1.4v-2.2c0-8.8-2.1-15.6-6.4-20.3zm-27.9 15.1c.3-3.4 1.3-6 3-7.9 1.7-1.8 4-2.7 7-2.7 3.2 0 5.7.9 7.4 2.7 1.8 1.8 2.7 4.4 2.8 7.9h-20.2z"/><g><path class="st1" d="M371.7 452.4c0-.1 0 0 0 0zM352.4 461.9c-2.8 2.2-6.4 3.3-10.7 3.3-6 0-10.6-2.1-13.9-6.2-3.3-4.1-4.9-10-4.9-17.5 0-7.8 1.6-13.7 4.9-17.8 3.2-4.1 8-6.1 14.3-6.1 4.5 0 8 1 10.6 3.1 2.6 2.1 4.2 5.1 4.8 9h14.1c-.5-7.9-3.4-14-8.5-18.3-5.1-4.3-12.1-6.5-21-6.5-10.9 0-19.3 3.1-25.1 9.4s-8.7 15.4-8.7 27.2c0 11.6 2.9 20.6 8.6 27 5.7 6.4 13.7 9.6 24 9.6 8.9 0 16.2-2.3 21.7-7 5.5-4.6 8.6-10.8 9.1-18.7h-13.9c-.8 4.1-2.6 7.3-5.4 9.5zM417.5 429.5c-1.5-1.9-3.5-3.4-5.9-4.4-2.5-1.1-5.2-1.6-8.2-1.6-3.2 0-6.1.6-8.6 1.8-2.5 1.2-4.7 3-6.6 5.3v-23.9h-13.6V476h13.6v-30.4c0-3.3.9-6 2.8-7.9 1.9-1.9 4.5-2.9 7.7-2.9 3 0 5.2.7 6.3 2.4 1.1 1.7 1.7 5.7 1.7 12V476h13.6v-34.1c0-3.7-.2-6.3-.6-8-.4-1.6-1.2-3.1-2.2-4.4zM469.7 471.6c-.5-1.1-.7-2.7-.7-4.8v-29.1c0-4.7-1.9-8.3-5.7-10.8s-9.3-3.7-16.5-3.7c-6.6 0-11.7 1.5-15.4 4.5s-5.6 7.1-5.6 12.4v.9h12.8v-.8c0-2 .7-3.6 2.2-4.7 1.5-1.1 3.6-1.7 6.4-1.7 3.1 0 5.2.4 6.5 1.3 1.3.9 1.9 2.4 1.9 4.5 0 2.6-2.9 4.2-8.7 5-2.3.3-4.2.6-5.6.8-6.2.9-10.6 2.7-13.3 5.2-2.7 2.6-4 6.3-4 11.1 0 5.2 1.3 9.3 4 12.1 2.7 2.8 6.5 4.2 11.5 4.2 3.7 0 7-.7 9.8-2.1 2.8-1.4 5.1-3.4 6.8-6.1 0 1.2.2 2.4.4 3.6.3 1 .6 2 1.1 2.9h14.3V474c-1-.6-1.8-1.3-2.2-2.4zm-13.8-15.8c0 3.7-1.1 6.5-3.2 8.6-2.1 2.1-5 3.1-8.7 3.1-2.1 0-3.8-.6-5-1.7-1.2-1.1-1.8-2.6-1.8-4.5 0-1.8.4-3.3 1.4-4.3s2.7-1.9 5.1-2.6c.1 0 1.6-.4 4.5-1s5.5-1.5 7.7-2.5v4.9zM500.2 434.6V425h-7.9v-14h-13.6v14h-6.8v9.6h6.8v27.7c0 5.8 1 9.6 2.9 11.6 2 1.9 5.5 2.9 10.8 2.9.4 0 1.6 0 3.3-.1 1.7-.1 3.2-.2 4.5-.2v-10.2h-3.3c-1.9 0-3.1-.2-3.7-.6-.6-.5-.9-1.3-.9-2.7v-28.4h7.9z"/></g></g></svg>